<svg version="1.1" xmlns="http://www.w3.org/2000/svg" width="27" height="28" xml:space="preserve">
    <path id="icon" fill-rule="evenodd" stroke="none" fill="rgb(255, 255, 255)" d="M 7.11,13.54 L 7.11,6.77 14.02,6.77 C 14.02,3.06 10.9,0 7.11,0 3.31,0 0.2,3.06 0.2,6.77 0.2,10.49 3.32,13.54 7.11,13.54 Z M 19.74,28 L 19.74,21.23 26.66,21.23 C 26.66,17.52 23.54,14.46 19.74,14.46 15.95,14.46 12.83,17.52 12.83,21.23 12.83,24.94 15.95,28 19.74,28 L 19.74,28 Z M 19.74,13.35 L 26.85,0.2 12.64,0.2 19.74,13.35 Z M 14.22,14.66 L 7.11,27.8 0,14.66 14.22,14.66 Z M 14.22,14.66" />
</svg>